REM DIRINDEX 1\4,1\2\5,1\2\6,1\2\7,1\3\8,1\3\9,1\3\10,1\3\11
REM DIRNAME cjc108,folder01,folder02,folder03,folder04,folder05,folder06,folder07,folder08,folder09,folder10
TITLE ""
FILE "t_k_055-066.mp3" MP3
  TRACK 01 AUDIO
    TITLE "5:cjc108_0164"
    INDEX 01 00:00:00
  TRACK 02 AUDIO
    TITLE "0:"
    INDEX 01 00:01:03
  TRACK 03 AUDIO
    TITLE "6:cjc108_0165"
    INDEX 01 00:01:09
  TRACK 04 AUDIO
    TITLE "0:"
    INDEX 01 00:03:04
  TRACK 05 AUDIO
    TITLE "7:cjc108_0166"
    INDEX 01 00:03:31
  TRACK 06 AUDIO
    TITLE "0:"
    INDEX 01 00:09:14
  TRACK 07 AUDIO
    TITLE "5:cjc108_0167"
    INDEX 01 00:09:73
  TRACK 08 AUDIO
    TITLE "0:"
    INDEX 01 00:11:05
  TRACK 09 AUDIO
    TITLE "6:cjc108_0168"
    INDEX 01 00:11:21
  TRACK 10 AUDIO
    TITLE "0:"
    INDEX 01 00:12:36
  TRACK 11 AUDIO
    TITLE "7:cjc108_0169"
    INDEX 01 00:12:52
  TRACK 12 AUDIO
    TITLE "0:"
    INDEX 01 00:18:37
  TRACK 13 AUDIO
    TITLE "5:cjc108_0170"
    INDEX 01 00:19:24
  TRACK 14 AUDIO
    TITLE "0:"
    INDEX 01 00:20:28
  TRACK 15 AUDIO
    TITLE "6:cjc108_0171"
    INDEX 01 00:20:47
  TRACK 16 AUDIO
    TITLE "0:"
    INDEX 01 00:23:28
  TRACK 17 AUDIO
    TITLE "7:cjc108_0172"
    INDEX 01 00:23:50
  TRACK 18 AUDIO
    TITLE "0:"
    INDEX 01 00:29:62
  TRACK 19 AUDIO
    TITLE "5:cjc108_0173"
    INDEX 01 00:30:65
  TRACK 20 AUDIO
    TITLE "0:"
    INDEX 01 00:32:00
  TRACK 21 AUDIO
    TITLE "6:cjc108_0174"
    INDEX 01 00:32:13
  TRACK 22 AUDIO
    TITLE "0:"
    INDEX 01 00:33:07
  TRACK 23 AUDIO
    TITLE "7:cjc108_0175"
    INDEX 01 00:33:42
  TRACK 24 AUDIO
    TITLE "0:"
    INDEX 01 00:37:38
  TRACK 25 AUDIO
    TITLE "5:cjc108_0176"
    INDEX 01 00:38:26
  TRACK 26 AUDIO
    TITLE "0:"
    INDEX 01 00:39:29
  TRACK 27 AUDIO
    TITLE "6:cjc108_0177"
    INDEX 01 00:39:51
  TRACK 28 AUDIO
    TITLE "0:"
    INDEX 01 00:42:18
  TRACK 29 AUDIO
    TITLE "7:cjc108_0178"
    INDEX 01 00:42:39
  TRACK 30 AUDIO
    TITLE "0:"
    INDEX 01 00:46:74
  TRACK 31 AUDIO
    TITLE "5:cjc108_0179"
    INDEX 01 00:47:66
  TRACK 32 AUDIO
    TITLE "0:"
    INDEX 01 00:48:69
  TRACK 33 AUDIO
    TITLE "6:cjc108_0180"
    INDEX 01 00:49:02
  TRACK 34 AUDIO
    TITLE "0:"
    INDEX 01 00:51:73
  TRACK 35 AUDIO
    TITLE "7:cjc108_0181"
    INDEX 01 00:52:24
  TRACK 36 AUDIO
    TITLE "0:"
    INDEX 01 00:57:13
  TRACK 37 AUDIO
    TITLE "5:cjc108_0182"
    INDEX 01 00:57:68
  TRACK 38 AUDIO
    TITLE "0:"
    INDEX 01 00:59:04
  TRACK 39 AUDIO
    TITLE "6:cjc108_0183"
    INDEX 01 00:59:22
  TRACK 40 AUDIO
    TITLE "0:"
    INDEX 01 01:00:53
  TRACK 41 AUDIO
    TITLE "7:cjc108_0184"
    INDEX 01 01:00:72
  TRACK 42 AUDIO
    TITLE "0:"
    INDEX 01 01:05:69
  TRACK 43 AUDIO
    TITLE "5:cjc108_0185"
    INDEX 01 01:06:63
  TRACK 44 AUDIO
    TITLE "0:"
    INDEX 01 01:07:55
  TRACK 45 AUDIO
    TITLE "6:cjc108_0186"
    INDEX 01 01:08:03
  TRACK 46 AUDIO
    TITLE "0:"
    INDEX 01 01:09:14
  TRACK 47 AUDIO
    TITLE "7:cjc108_0187"
    INDEX 01 01:09:44
  TRACK 48 AUDIO
    TITLE "0:"
    INDEX 01 01:14:66
  TRACK 49 AUDIO
    TITLE "5:cjc108_0188"
    INDEX 01 01:15:56
  TRACK 50 AUDIO
    TITLE "0:"
    INDEX 01 01:16:63
  TRACK 51 AUDIO
    TITLE "6:cjc108_0189"
    INDEX 01 01:17:04
  TRACK 52 AUDIO
    TITLE "0:"
    INDEX 01 01:19:13
  TRACK 53 AUDIO
    TITLE "7:cjc108_0190"
    INDEX 01 01:19:42
  TRACK 54 AUDIO
    TITLE "0:"
    INDEX 01 01:25:72
  TRACK 55 AUDIO
    TITLE "5:cjc108_0191"
    INDEX 01 01:26:62
  TRACK 56 AUDIO
    TITLE "0:"
    INDEX 01 01:28:04
  TRACK 57 AUDIO
    TITLE "6:cjc108_0192"
    INDEX 01 01:28:24
  TRACK 58 AUDIO
    TITLE "0:"
    INDEX 01 01:30:48
  TRACK 59 AUDIO
    TITLE "7:cjc108_0193"
    INDEX 01 01:30:69
  TRACK 60 AUDIO
    TITLE "0:"
    INDEX 01 01:36:70
  TRACK 61 AUDIO
    TITLE "5:cjc108_0194"
    INDEX 01 01:37:60
  TRACK 62 AUDIO
    TITLE "0:"
    INDEX 01 01:38:73
  TRACK 63 AUDIO
    TITLE "6:cjc108_0195"
    INDEX 01 01:39:12
  TRACK 64 AUDIO
    TITLE "0:"
    INDEX 01 01:41:69
  TRACK 65 AUDIO
    TITLE "7:cjc108_0196"
    INDEX 01 01:42:26
  TRACK 66 AUDIO
    TITLE "0:"
    INDEX 01 01:47:68
  TRACK 67 AUDIO
    TITLE "5:cjc108_0197"
    INDEX 01 01:48:60
  TRACK 68 AUDIO
    TITLE "0:"
    INDEX 01 01:49:65
  TRACK 69 AUDIO
    TITLE "6:cjc108_0198"
    INDEX 01 01:50:06
  TRACK 70 AUDIO
    TITLE "0:"
    INDEX 01 01:51:07
  TRACK 71 AUDIO
    TITLE "7:cjc108_0199"
    INDEX 01 01:51:32
  TRACK 72 AUDIO
    TITLE "0:"
    INDEX 01 01:57:08
